<?xml version="1.0" encoding="UTF-8" standalone="no"?>
<svg
   width="210mm"
   height="297mm"
   viewBox="0 -129 210 297"
   version="1.1"
   id="svg1"
   sodipodi:docname="furby-final.svg"
   inkscape:version="1.3.2 (091e20e, 2023-11-25)"
   xmlns:inkscape="http://www.inkscape.org/namespaces/inkscape"
   xmlns:sodipodi="http://sodipodi.sourceforge.net/DTD/sodipodi-0.dtd"
   xmlns="http://www.w3.org/2000/svg"
   xmlns:svg="http://www.w3.org/2000/svg"
   xmlns:rdf="http://www.w3.org/1999/02/22-rdf-syntax-ns#"
   xmlns:cc="http://creativecommons.org/ns#"
   xmlns:dc="http://purl.org/dc/elements/1.1/">
  <defs
     id="defs1" />
  <sodipodi:namedview
     id="namedview1"
     pagecolor="#ffffff"
     bordercolor="#666666"
     borderopacity="1.0"
     inkscape:showpageshadow="2"
     inkscape:pageopacity="0.0"
     inkscape:pagecheckerboard="0"
     inkscape:deskcolor="#d1d1d1"
     inkscape:document-units="mm"
     inkscape:zoom="0.81482586"
     inkscape:cx="274.90536"
     inkscape:cy="405.60814"
     inkscape:window-width="1360"
     inkscape:window-height="586"
     inkscape:window-x="176"
     inkscape:window-y="245"
     inkscape:window-maximized="0"
     inkscape:current-layer="svg1" />
  <title
     id="title1">OpenSCAD Model</title>
  <path
     d="M 106.43908,-92.940918 H 35.559082 v 128.5 h 70.879998 z m -63.575558,4.235 -0.19072,-0.046 -0.18121,-0.075 -0.16725,-0.103 -0.14916,-0.127 -0.12738,-0.149 -0.10249,-0.168 -0.07506,-0.181 -0.04579,-0.19 -0.01538,-0.196 0.01538,-0.196 0.04579,-0.19 0.07506,-0.181 0.10249,-0.168 0.12738,-0.149 0.14916,-0.127 0.16725,-0.103 0.18121,-0.075 0.19072,-0.046 0.19556,-0.015 0.19554,0.015 0.19072,0.046 0.18121,0.075 0.16726,0.103 0.14915,0.127 0.12738,0.149 0.10249,0.168 0.07506,0.181 0.04579,0.19 0.0154,0.196 -0.0154,0.196 -0.04579,0.19 -0.07506,0.181 -0.10249,0.168 -0.12738,0.149 -0.14915,0.127 -0.16726,0.103 -0.18121,0.075 -0.19072,0.046 -0.19554,0.015 z m 55.87996,0 -0.1907,-0.046 -0.1812,-0.075 -0.1672,-0.103 -0.1492,-0.127 -0.1274,-0.149 -0.1025,-0.168 -0.075,-0.181 -0.0458,-0.19 -0.0154,-0.196 0.0154,-0.196 0.0458,-0.19 0.075,-0.181 0.1025,-0.168 0.1274,-0.149 0.1492,-0.127 0.1672,-0.103 0.1812,-0.075 0.1907,-0.046 0.1956,-0.015 0.1955,0.015 0.1908,0.046 0.1812,0.075 0.1672,0.103 0.1492,0.127 0.1274,0.149 0.102498,0.168 0.075,0.181 0.0458,0.19 0.0154,0.196 -0.0154,0.196 -0.0458,0.19 -0.075,0.181 -0.102498,0.168 -0.1274,0.149 -0.1492,0.127 -0.1672,0.103 -0.1812,0.075 -0.1908,0.046 -0.1955,0.015 z m -30.4909,61.0803 -2.2888,-0.5494 -2.1746,-0.9008 -2.0069,-1.2298 -1.7898,-1.5287 -1.5287,-1.7898 -1.2298,-2.0069 -0.9008,-2.1746 -0.5494,-2.2888 -0.1847,-2.3465 0.1847,-2.3465 0.5494,-2.2888 0.6091,-1.4704 -1.3432,0.1057 -2.503,-0.197 -2.4413,-0.5861 -2.3196,-0.9608 -2.1407,-1.3118 -1.90911,-1.6306 -1.63057,-1.9091 -1.31183,-2.1407 -0.9608,-2.3196 -0.58611,-2.4413 -0.19699,-2.503 0.19699,-2.503 0.58611,-2.441 0.9608,-2.32 1.31183,-2.141 1.63057,-1.909 1.90911,-1.63 2.1407,-1.312 2.3196,-0.961 2.4413,-0.586 2.503,-0.197 2.5029,0.197 2.4414,0.586 2.3195,0.961 2.1408,1.312 1.9091,1.63 1.6306,1.909 1.3118,2.141 0.7439,1.796 0.7439,-1.796 1.3118,-2.141 1.6306,-1.909 1.9091,-1.63 2.1408,-1.312 2.3195,-0.961 2.4413,-0.586 2.503,-0.197 2.5029,0.197 2.4414,0.586 2.3195,0.961 2.1408,1.312 1.9091,1.63 1.6306,1.909 1.3118,2.141 0.960798,2.32 0.5861,2.441 0.197,2.503 -0.197,2.503 -0.5861,2.4413 -0.960798,2.3196 -1.3118,2.1407 -1.6306,1.9091 -1.9091,1.6306 -2.1408,1.3118 -2.3195,0.9608 -2.4414,0.5861 -2.5029,0.197 -1.3432,-0.1057 0.609,1.4704 0.5495,2.2888 0.1847,2.3465 -0.1847,2.3465 -0.5495,2.2888 -0.9007,2.1746 -1.2299,2.0069 -1.5286,1.7898 -1.7898,1.5287 -2.0069,1.2298 -2.1747,0.9008 -2.2887,0.5494 -2.3465,0.1847 z m 2.3465,-31.3474 -0.656,1.5837 0.656,-0.0516 0.656,0.0516 z m -8.116,43.0717 v -5.689 h 21.4884 v 5.689 z m -17.05753,1.8192 -0.53404,-0.1282 -0.5074,-0.2102 -0.46828,-0.2869 -0.41763,-0.3567 -0.35669,-0.4176 -0.28696,-0.4683 -0.21017,-0.5074 -0.12822,-0.5341 -0.04309,-0.5475 0.04309,-0.5475 0.12822,-0.5341 0.21017,-0.5074 0.28696,-0.4682 0.35669,-0.4177 0.41763,-0.3567 0.46828,-0.2869 0.5074,-0.2102 0.53404,-0.1282 0.54753,-0.0431 0.5475,0.0431 0.534,0.1282 0.5075,0.2102 0.4682,0.2869 0.4177,0.3567 0.3566,0.4177 0.287,0.4682 0.2102,0.5074 0.1282,0.5341 0.0431,0.5475 -0.0431,0.5475 -0.1282,0.5341 -0.2102,0.5074 -0.287,0.4683 -0.3566,0.4176 -0.4177,0.3567 -0.4682,0.2869 -0.5075,0.2102 -0.534,0.1282 -0.5475,0.0431 z m 16.17413,14.49769966 -0.5341,-0.1282 -0.5074,-0.2102 -0.4683,-0.2869 -0.4176,-0.3567 -0.3567,-0.4177 -0.2869,-0.46819996 -0.2102,-0.5074 -0.1282,-0.5341 -0.0431,-0.5475 0.0431,-0.5475 0.1282,-0.5341 0.2102,-0.5074 0.2869,-0.4682 0.3567,-0.4177 0.4176,-0.3567 0.4683,-0.2869 0.5074,-0.2102 0.5341,-0.1282 0.5475,-0.0431 0.5475,0.0431 0.534,0.1282 0.5075,0.2102 0.4682,0.2869 0.4177,0.3567 0.3566,0.4177 0.287,0.4682 0.2102,0.5074 0.1282,0.5341 0.0431,0.5475 -0.0431,0.5475 -0.1282,0.5341 -0.2102,0.5074 -0.287,0.46819996 -0.3566,0.4177 -0.4177,0.3567 -0.4682,0.2869 -0.5075,0.2102 -0.534,0.1282 -0.5475,0.0431 z m -16.25602,0 -0.53405,-0.1282 -0.50741,-0.2102 -0.46828,-0.2869 -0.41762,-0.3567 -0.35669,-0.4177 -0.28697,-0.46819996 -0.21017,-0.5074 -0.12821,-0.5341 -0.04309,-0.5475 0.04309,-0.5475 0.12821,-0.5341 0.21017,-0.5074 0.28697,-0.4682 0.35669,-0.4177 0.41762,-0.3567 0.46828,-0.2869 0.50741,-0.2102 0.53405,-0.1282 0.54752,-0.0431 0.5475,0.0431 0.5341,0.1282 0.5074,0.2102 0.4682,0.2869 0.4177,0.3567 0.3567,0.4177 0.2869,0.4682 0.2102,0.5074 0.1282,0.5341 0.0431,0.5475 -0.0431,0.5475 -0.1282,0.5341 -0.2102,0.5074 -0.2869,0.46819996 -0.3567,0.4177 -0.4177,0.3567 -0.4682,0.2869 -0.5074,0.2102 -0.5341,0.1282 -0.5475,0.0431 z m 32.51202,0 -0.5341,-0.1282 -0.5074,-0.2102 -0.4683,-0.2869 -0.4176,-0.3567 -0.3567,-0.4177 -0.2869,-0.46819996 -0.2102,-0.5074 -0.1282,-0.5341 -0.0431,-0.5475 0.0431,-0.5475 0.1282,-0.5341 0.2102,-0.5074 0.2869,-0.4682 0.3567,-0.4177 0.4176,-0.3567 0.4683,-0.2869 0.5074,-0.2102 0.5341,-0.1282 0.5475,-0.0431 0.5475,0.0431 0.5341,0.1282 0.5074,0.2102 0.4682,0.2869 0.4177,0.3567 0.3567,0.4177 0.2869,0.4682 0.2102,0.5074 0.1282,0.5341 0.0431,0.5475 -0.0431,0.5475 -0.1282,0.5341 -0.2102,0.5074 -0.2869,0.46819996 -0.3567,0.4177 -0.4177,0.3567 -0.4682,0.2869 -0.5074,0.2102 -0.5341,0.1282 -0.5475,0.0431 z m -32.40234,16.99630034 -0.61034,-0.1466 -0.57989,-0.2402 -0.53518,-0.3279 -0.47729,-0.4077 -0.40764,-0.4773 -0.32796,-0.5351 -0.2402,-0.5799 -0.14652,-0.6104 -0.04925,-0.6257 0.04925,-0.6257 0.14652,-0.6104 0.2402,-0.5799 0.32796,-0.5351 0.40764,-0.4773 0.47729,-0.4077 0.53518,-0.3279003 0.57989,-0.2402 0.61034,-0.1466 0.62574,-0.0492 0.6257,0.0492 0.6104,0.1466 0.5799,0.2402 0.5351,0.3279003 0.4773,0.4077 0.4077,0.4773 0.3279,0.5351 0.2402,0.5799 0.1465,0.6104 0.0493,0.6257 -0.0493,0.6257 -0.1465,0.6104 -0.2402,0.5799 -0.3279,0.5351 -0.4077,0.4773 -0.4773,0.4077 -0.5351,0.3279 -0.5799,0.2402 -0.6104,0.1466 -0.6257,0.0492 z m 16.28994,0 -0.6103,-0.1466 -0.5799,-0.2402 -0.5352,-0.3279 -0.4772,-0.4077 -0.4077,-0.4773 -0.3279,-0.5351 -0.2402,-0.5799 -0.1466,-0.6104 -0.0492,-0.6257 0.0492,-0.6257 0.1466,-0.6104 0.2402,-0.5799 0.3279,-0.5351 0.4077,-0.4773 0.4772,-0.4077 0.5352,-0.3279003 0.5799,-0.2402 0.6103,-0.1466 0.6258,-0.0492 0.6257,0.0492 0.6104,0.1466 0.5799,0.2402 0.5351,0.3279003 0.4773,0.4077 0.4077,0.4773 0.3279,0.5351 0.2402,0.5799 0.1465,0.6104 0.0493,0.6257 -0.0493,0.6257 -0.1465,0.6104 -0.2402,0.5799 -0.3279,0.5351 -0.4077,0.4773 -0.4773,0.4077 -0.5351,0.3279 -0.5799,0.2402 -0.6104,0.1466 -0.6257,0.0492 z m 32.5121,0 -0.6104,-0.1466 -0.5799,-0.2402 -0.5351,-0.3279 -0.4773,-0.4077 -0.4077,-0.4773 -0.3279,-0.5351 -0.2402,-0.5799 -0.1466,-0.6104 -0.0492,-0.6257 0.0492,-0.6257 0.1466,-0.6104 0.2402,-0.5799 0.3279,-0.5351 0.4077,-0.4773 0.4773,-0.4077 0.5351,-0.3279003 0.5799,-0.2402 0.6104,-0.1466 0.6257,-0.0492 0.6257,0.0492 0.6104,0.1466 0.5799,0.2402 0.5351,0.3279003 0.4773,0.4077 0.4077,0.4773 0.3279,0.5351 0.2402,0.5799 0.1466,0.6104 0.0492,0.6257 -0.0492,0.6257 -0.1466,0.6104 -0.2402,0.5799 -0.3279,0.5351 -0.4077,0.4773 -0.4773,0.4077 -0.5351,0.3279 -0.5799,0.2402 -0.6104,0.1466 -0.6257,0.0492 z m -16.256,0 -0.6104,-0.1466 -0.5799,-0.2402 -0.5351,-0.3279 -0.4773,-0.4077 -0.4077,-0.4773 -0.3279,-0.5351 -0.2402,-0.5799 -0.1466,-0.6104 -0.0492,-0.6257 0.0492,-0.6257 0.1466,-0.6104 0.2402,-0.5799 0.3279,-0.5351 0.4077,-0.4773 0.4773,-0.4077 0.5351,-0.3279003 0.5799,-0.2402 0.6104,-0.1466 0.6257,-0.0492 0.6257,0.0492 0.6104,0.1466 0.5799,0.2402 0.5351,0.3279003 0.4773,0.4077 0.4077,0.4773 0.3279,0.5351 0.2402,0.5799 0.1466,0.6104 0.0492,0.6257 -0.0492,0.6257 -0.1466,0.6104 -0.2402,0.5799 -0.3279,0.5351 -0.4077,0.4773 -0.4773,0.4077 -0.5351,0.3279 -0.5799,0.2402 -0.6104,0.1466 -0.6257,0.0492 z m -35.13586,16.38182 -0.19072,-0.04579 -0.18121,-0.07506 -0.16725,-0.10249 -0.14916,-0.12738 -0.12738,-0.14916 -0.10249,-0.16725 -0.07506,-0.18121 -0.04579,-0.19072 -0.01538,-0.19556 0.01538,-0.19554 0.04579,-0.19072 0.07506,-0.18121 0.10249,-0.16726 0.12738,-0.14915 0.14916,-0.12738 0.16725,-0.10249 0.18121,-0.07506 0.19072,-0.04579 0.19556,-0.0154 0.19554,0.0154 0.19072,0.04579 0.18121,0.07506 0.16726,0.10249 0.14915,0.12738 0.12738,0.14915 0.10249,0.16726 0.07506,0.18121 0.04579,0.19072 0.0154,0.19554 -0.0154,0.19556 -0.04579,0.19072 -0.07506,0.18121 -0.10249,0.16725 -0.12738,0.14916 -0.14915,0.12738 -0.16726,0.10249 -0.18121,0.07506 -0.19072,0.04579 -0.19554,0.01538 z m 55.87996,0 -0.1907,-0.04579 -0.1812,-0.07506 -0.1672,-0.10249 -0.1492,-0.12738 -0.1274,-0.14916 -0.1025,-0.16725 -0.075,-0.18121 -0.0458,-0.19072 -0.0154,-0.19556 0.0154,-0.19554 0.0458,-0.19072 0.075,-0.18121 0.1025,-0.16726 0.1274,-0.14915 0.1492,-0.12738 0.1672,-0.10249 0.1812,-0.07506 0.1907,-0.04579 0.1956,-0.0154 0.1955,0.0154 0.1908,0.04579 0.1812,0.07506 0.1672,0.10249 0.1492,0.12738 0.1274,0.14915 0.102498,0.16726 0.075,0.18121 0.0458,0.19072 0.0154,0.19554 -0.0154,0.19556 -0.0458,0.19072 -0.075,0.18121 -0.102498,0.16725 -0.1274,0.14916 -0.1492,0.12738 -0.1672,0.10249 -0.1812,0.07506 -0.1908,0.04579 -0.1955,0.01538 z"
     stroke="#000000"
     fill="#d3d3d3"
     stroke-width="0.5"
     id="path1" />
  <metadata
     id="metadata1">
    <rdf:RDF>
      <cc:Work
         rdf:about="">
        <dc:title>OpenSCAD Model</dc:title>
      </cc:Work>
    </rdf:RDF>
  </metadata>
</svg>
